<svg width="34" height="34" viewBox="0 0 34 34" fill="none" xmlns="http://www.w3.org/2000/svg">
<g clip-path="url(#clip0_2_11)">
<mask id="mask0_2_11" style="mask-type:luminance" maskUnits="userSpaceOnUse" x="-1" y="0" width="35" height="34">
<path d="M-0.000120044 33.9999L33.9999 33.9999L33.9999 0.87174L-0.000120044 0.87174L-0.000120044 33.9999Z" fill="white"/>
</mask>
<g mask="url(#mask0_2_11)">
<path d="M19.4331 4.21484L2.91348 33.1833L-0.000120044 31.7818L17.5227 0.87174L19.4331 4.21484ZM23.0637 10.7455L9.90358 33.889C9.90358 33.889 6.89628 34.1448 6.10438 33.8796C11.2446 25.0077 21.1901 7.29574 21.1901 7.29574L23.0637 10.7455ZM33.9999 29.8742C33.9999 29.8742 33.7478 29.7714 33.4761 29.6458C32.4426 29.1678 31.2386 28.8009 29.993 28.5843L29.3885 28.4792L22.9548 17.1572L24.8359 13.8669L33.9999 29.8742ZM25.7608 28.347C25.7608 28.347 25.2829 28.4175 24.726 28.4778C24.1691 28.5381 23.4264 28.658 23.0756 28.7442C22.7248 28.8304 22.3523 28.9009 22.3523 28.9009L19.3132 23.6344L21.1907 20.2715L25.7608 28.347Z" fill="#CB95AA"/>
</g>
</g>
<defs>
<clipPath id="clip0_2_11">
<rect width="34" height="34" fill="white" transform="matrix(-1 0 0 -1 33.9999 33.9999)"/>
</clipPath>
</defs>
</svg>
